<?xml version="1.0" encoding="utf-8"?>
<!-- Generator: Adobe Illustrator 16.0.0, SVG Export Plug-In . SVG Version: 6.00 Build 0)  -->
<!DOCTYPE svg PUBLIC "-//W3C//DTD SVG 1.1//EN" "http://www.w3.org/Graphics/SVG/1.1/DTD/svg11.dtd">
<svg version="1.1" id="正面彩圖" xmlns="http://www.w3.org/2000/svg" xmlns:xlink="http://www.w3.org/1999/xlink" x="0px"
	 y="0px" width="512.003px" height="512px" viewBox="0 0 512.003 512" enable-background="new 0 0 512.003 512"
	 xml:space="preserve">
<g id="LogoCT">
	<g>
		<path fill="#DDDDDD" d="M496.945,256c0,133.071-107.875,240.945-240.94,240.945C122.93,496.945,15.055,389.071,15.055,256
			S122.93,15.055,256.004,15.055C389.07,15.055,496.945,122.929,496.945,256z"/>
		<path fill="#7EBEE3" d="M255.996,256l-240.94-0.009c0,133.08,107.875,240.954,240.949,240.954L255.996,256z"/>
		<path fill="#7EBEE3" d="M256.004,256h240.94c0-133.071-107.875-240.945-240.949-240.945L256.004,256z"/>
		<path fill="#DDDDDD" d="M408.179,256c0,84.055-68.137,152.173-152.184,152.173c-84.038,0-152.175-68.118-152.175-152.173
			c0-84.046,68.137-152.173,152.175-152.173C340.042,103.827,408.179,171.954,408.179,256z"/>
		<path fill="#1D96D5" d="M256.004,256l-0.009-152.173c-84.038,0-152.175,68.127-152.175,152.173H256.004z"/>
		<path fill="#1D96D5" d="M255.996,256l0.009,152.173c84.048,0,152.175-68.118,152.175-152.173H255.996z"/>
		<path fill="#1C2A54" d="M185.919,311.798V200.202c21.014,0,39.294,11.621,48.809,28.781l9.979-5.531
			c-11.464-20.664-33.482-34.661-58.787-34.661c-37.117,0-67.21,30.092-67.21,67.209s30.093,67.209,67.21,67.209
			c25.305,0,47.323-13.997,58.787-34.661l-9.979-5.531C225.213,300.177,206.933,311.798,185.919,311.798z"/>
		<polygon fill="#1C2A54" points="388.232,188.791 260.731,188.791 260.731,200.15 297.08,200.15 297.08,323.209 351.324,323.209 
			351.324,200.15 388.232,200.15 		"/>
	</g>
</g>
</svg>
